<?xml version="1.0" encoding="utf-8"?>
<svg id="master-artboard" viewBox="0 0 1400 980" version="1.1" xmlns="http://www.w3.org/2000/svg" x="0px" y="0px" style="enable-background:new 0 0 1400 980;" width="1400px" height="980px"><defs><style id="ee-google-fonts">@import url(https://fonts.googleapis.com/css?family=Fjalla+One:400|Roboto:100,100italic,300,300italic,400,400italic,500,500italic,700,700italic,900,900italic);</style></defs>

<path d="M 0 0 H 1400 V 980 H 0 V 0 Z" class="st0" style="fill: rgba(255, 255, 255, 0);" transform="matrix(1.0054457187652588, 0, 0, 1.0054457187652588, -2.577101546789436, -2.477829295660257)"/>
<path class="st1" d="M1149.3,483.2c0,247.8-198.1,448.6-442.4,448.6c-244.3,0-442.4-200.9-442.4-448.6&#10;&#9;&#9;c0-247.8,198.1-448.6,442.4-448.6C951.2,34.5,1149.3,235.4,1149.3,483.2z" style="fill: rgba(255, 255, 255, 0);" transform="matrix(1, 0, 0, 1, 1.8189894035458565e-12, 4.547473508864641e-13)"/>
<path class="st2" d="M1236.1,745.9c0,23.3-17.5,42.3-39,42.3H259.4c-21.5,0-39-18.9-39-42.3v-6.2c0-23.4,17.5-42.3,39-42.3h937.8&#10;&#9;&#9;c21.5,0,39,18.9,39,42.3V745.9z" style="fill: rgb(62, 133, 86);" transform="matrix(0.9999999999999999, 0, 0, 0.9999999999999999, 1.8189894035458565e-12, 4.547473508864641e-13)"/>
<path class="st3" d="M1290.4,679c0,10.7-19.3,19.4-43.1,19.4h-1038c-23.8,0-43.1-8.7-43.1-19.4v-2.9c0-10.7,19.3-19.4,43.1-19.4&#10;&#9;&#9;h1038c23.8,0,43.1,8.7,43.1,19.4V679z" style="fill: rgb(95, 189, 115);" transform="matrix(0.9999999999999999, 0, 0, 0.9999999999999999, 1.8189894035458565e-12, 4.547473508864641e-13)"/>

<path d="M 529.200012 232.100006 L 873.200012 232.100006" class="st4" style="fill: rgb(255, 255, 255);" transform="matrix(0.9999999999999999, 0, 0, 0.9999999999999999, 1.8189894035458565e-12, 4.547473508864641e-13)"/>
<path d="M 529.200012 100.900002 L 873.200012 100.900002" class="st4" style="fill: rgb(255, 255, 255);" transform="matrix(0.9999999999999999, 0, 0, 0.9999999999999999, 1.8189894035458565e-12, 4.547473508864641e-13)"/>
<path d="M 475.399994 237.100006 L 271.399994 657.400024 L 475.399994 657.400024" class="st5" style="fill: rgb(122, 125, 120);" transform="matrix(0.9999999999999999, 0, 0, 0.9999999999999999, 1.8189894035458565e-12, 4.547473508864641e-13)"/>
<path d="M 475.399994 237.100006 L 679.299988 657.400024 L 475.399994 657.400024" class="st6" style="fill: rgb(93, 96, 92);" transform="matrix(0.9999999999999999, 0, 0, 0.9999999999999999, 1.8189894035458565e-12, 4.547473508864641e-13)"/>
<path d="M 952.5 264.399994 L 779.400024 657.400024 L 952.5 657.400024" class="st5" style="fill: rgb(122, 125, 120);" transform="matrix(0.9999999999999999, 0, 0, 0.9999999999999999, 1.8189894035458565e-12, 4.547473508864641e-13)"/>
<path d="M 952.5 264.399994 L 1125.5 657.400024 L 952.5 657.400024" class="st6" style="fill: rgb(93, 96, 92);" transform="matrix(0.9999999999999999, 0, 0, 0.9999999999999999, 1.8189894035458565e-12, 4.547473508864641e-13)"/>
<path d="M 355.700012 345.600006 L 218.300003 657.400024 L 355.700012 657.400024" class="st5" style="fill: rgb(122, 125, 120);" transform="matrix(0.9999999999999999, 0, 0, 0.9999999999999999, 1.8189894035458565e-12, 4.547473508864641e-13)"/>
<path d="M 355.700012 345.600006 L 493 657.400024 L 355.700012 657.400024" class="st6" style="fill: rgb(93, 96, 92);" transform="matrix(0.9999999999999999, 0, 0, 0.9999999999999999, 1.8189894035458565e-12, 4.547473508864641e-13)"/>
<path d="M 782 345.200012 L 644.700012 657 L 782 657" class="st5" style="fill: rgb(122, 125, 120);" transform="matrix(0.9999999999999999, 0, 0, 0.9999999999999999, 1.8189894035458565e-12, 4.547473508864641e-13)"/>
<path d="M 782 345.200012 L 919.299988 657 L 782 657" class="st6" style="fill: rgb(93, 96, 92);" transform="matrix(0.9999999999999999, 0, 0, 0.9999999999999999, 1.8189894035458565e-12, 4.547473508864641e-13)"/>
<path d="M 1089.800049 430 L 989.799988 657 L 1089.800049 657" class="st5" style="fill: rgb(122, 125, 120);" transform="matrix(0.9999999999999999, 0, 0, 0.9999999999999999, 1.8189894035458565e-12, 4.547473508864641e-13)"/>
<path d="M 1089.800049 430 L 1189.800049 657 L 1089.800049 657" class="st6" style="fill: rgb(93, 96, 92);" transform="matrix(0.9999999999999999, 0, 0, 0.9999999999999999, 1.8189894035458565e-12, 4.547473508864641e-13)"/>

<path d="M 1090.199951171875 429.29998779296875 L 1047.5 526.2000122070312 L 1069.199951171875 515 L 1061.0999755859375 559.9000244140625 L 1090.199951171875 521.0999755859375 L 1107.800048828125 542.0999755859375 L 1112.199951171875 510.79998779296875 L 1129.300048828125 518 Z" class="st7" style="fill: rgb(215, 217, 216);" transform="matrix(0.9999999999999999, 0, 0, 0.9999999999999999, 1.8189894035458565e-12, 4.547473508864641e-13)"/>
<path d="M 964.399994 738.700012 A 262.600006 23.700001 0 0 1 701.799988 762.400013 A 262.600006 23.700001 0 0 1 439.199982 738.700012 A 262.600006 23.700001 0 0 1 701.799988 715.000011 A 262.600006 23.700001 0 0 1 964.399994 738.700012 Z" class="st8" style="fill: rgb(46, 106, 68);" transform="matrix(0.9999999999999999, 0, 0, 0.9999999999999999, 1.8189894035458565e-12, 4.547473508864641e-13)"/>
<path d="M 952.700012 263.600006 L 894.599976 395.5 L 923.599976 373.799988 L 933.599976 441.600006 L 952.700012 395.5 L 980.400024 412.200012 L 988.200012 377.100006 L 1011.700012 397.600006" class="st7" style="fill: rgb(215, 217, 216);" transform="matrix(0.9999999999999999, 0, 0, 0.9999999999999999, 1.8189894035458565e-12, 4.547473508864641e-13)"/>
<path d="M 1088.699951171875 523.0999755859375 L 1088.699951171875 432.70001220703125 L 1047.5 526.2000122070312 L 1067.300048828125 519.9000244140625 L 1061.0999755859375 559.9000244140625 Z" class="st4" style="fill: rgb(255, 255, 255);" transform="matrix(0.9999999999999999, 0, 0, 0.9999999999999999, 1.8189894035458565e-12, 4.547473508864641e-13)"/>
<path d="M 781.599976 342.799988 L 737.400024 443.299988 L 759.5 426.799988 L 767.099976 478.5 L 781.599976 443.299988 L 802.799988 456.100006 L 808.700012 429.299988 L 826.599976 444.899994" class="st7" style="fill: rgb(215, 217, 216);" transform="matrix(0.9999999999999999, 0, 0, 0.9999999999999999, 1.8189894035458565e-12, 4.547473508864641e-13)"/>
<g transform="matrix(0.9999999999999999, 0, 0, 0.9999999999999999, 1.8189894035458565e-12, 4.547473508864641e-13)">
		<path d="M 429.399994 639.200012 H 451.999994 V 649.000012 H 429.399994 V 639.200012 Z"/>
	</g>
<path d="M 952.2000122070312 264.5 L 894.5999755859375 395.5 L 923.5999755859375 373.79998779296875 L 933.5999755859375 441.6000061035156 L 952.2000122070312 396.5 Z" class="st4" style="fill: rgb(255, 255, 255);" transform="matrix(0.9999999999999999, 0, 0, 0.9999999999999999, 1.8189894035458565e-12, 4.547473508864641e-13)"/>
<path d="M 782.5 344.70001220703125 L 781.5999755859375 342.79998779296875 L 737.4000244140625 443.29998779296875 L 759.5 426.79998779296875 L 767.0999755859375 478.5 L 781.5999755859375 443.29998779296875 L 782.5 443.79998779296875 Z" class="st4" style="fill: rgb(255, 255, 255);" transform="matrix(0.9999999999999999, 0, 0, 0.9999999999999999, 1.8189894035458565e-12, 4.547473508864641e-13)"/>
<g transform="matrix(0.9999999999999999, 0, 0, 0.9999999999999999, 1.8189894035458565e-12, 4.547473508864641e-13)">
		<g>
			<path d="M 836 380.799988 H 868.200001 V 435.199989 H 836 V 380.799988 Z" class="st9" style="fill: rgb(220, 186, 142);"/>
		</g>
	</g><g transform="matrix(0.9999999999999999, 0, 0, 0.9999999999999999, 3.637978807091713e-12, 9.094947017729282e-13)">
			<path d="M 831.5 374.600006 H 872.700001 V 383.100006 H 831.5 V 374.600006 Z"/>
		</g><g transform="matrix(0.9999999999999999, 0, 0, 0.9999999999999999, 3.637978807091713e-12, 9.094947017729282e-13)">
			<path d="M 1064.699951171875 657.4000244140625 L 812.0999755859375 657.4000244140625 L 812.0999755859375 450.1000061035156 L 1010.9000244140625 450.1000061035156 L 1010.9000244140625 529.5 L 1064.699951171875 528.9000244140625 Z" class="st9" style="fill: rgb(220, 186, 142);"/>
		</g><g transform="matrix(0.9999999999999999, 0, 0, 0.9999999999999999, 3.637978807091713e-12, 9.094947017729282e-13)">
			<path d="M 914.0999755859375 364.20001220703125 L 812.0999755859375 450.1000061035156 L 1016 450.1000061035156 L 914.0999755859375 364.20001220703125 L 812.0999755859375 450.1000061035156 L 1016 450.1000061035156 Z" class="st9" style="fill: rgb(220, 186, 142);"/>
		</g><g transform="matrix(0.9999999999999999, 0, 0, 0.9999999999999999, 3.637978807091713e-12, 9.094947017729282e-13)">
			<path d="M 812.099976 626.799988 H 1064.699982 V 657.499989 H 812.099976 V 626.799988 Z" class="st10" style="fill: rgb(88, 70, 49);"/>
		</g><g transform="matrix(0.9999999999999999, 0, 0, 0.9999999999999999, 3.637978807091713e-12, 9.094947017729282e-13)">
			<path d="M 914.0999755859375 534.7000122070312 L 892.7000122070312 552.7000122070312 L 935.4000244140625 552.7000122070312 L 914.0999755859375 534.7000122070312 L 892.7000122070312 552.7000122070312 L 935.4000244140625 552.7000122070312 Z"/>
		</g><g transform="matrix(0.9999999999999999, 0, 0, 0.9999999999999999, 3.637978807091713e-12, 9.094947017729282e-13)">
			<path d="M 892.200012 553.799988 H 935.700012 V 625.599991 H 892.200012 V 553.799988 Z" class="st11" style="fill: rgb(230, 231, 232);"/>
		</g><g transform="matrix(0.9999999999999999, 0, 0, 0.9999999999999999, 3.637978807091713e-12, 9.094947017729282e-13)">
			<path d="M 952.5 553.799988 H 993.299999 V 595.099987 H 952.5 V 553.799988 Z" class="st11" style="fill: rgb(230, 231, 232);"/>
		</g><g transform="matrix(0.9999999999999999, 0, 0, 0.9999999999999999, 3.637978807091713e-12, 9.094947017729282e-13)">
			<path d="M 1011.400024 553.799988 H 1052.200024 V 595.099987 H 1011.400024 V 553.799988 Z" class="st11" style="fill: rgb(230, 231, 232);"/>
		</g><g transform="matrix(0.9999999999999999, 0, 0, 0.9999999999999999, 3.637978807091713e-12, 9.094947017729282e-13)">
			<path d="M 952.5 474.5 H 993.299999 V 515.799999 H 952.5 V 474.5 Z" class="st11" style="fill: rgb(230, 231, 232);"/>
		</g><g transform="matrix(0.9999999999999999, 0, 0, 0.9999999999999999, 3.637978807091713e-12, 9.094947017729282e-13)">
			<path d="M 893.599976 474.5 H 934.399975 V 515.799999 H 893.599976 V 474.5 Z" class="st11" style="fill: rgb(230, 231, 232);"/>
		</g><g transform="matrix(0.9999999999999999, 0, 0, 0.9999999999999999, 3.637978807091713e-12, 9.094947017729282e-13)">
			<path d="M 834.700012 474.5 H 875.500011 V 515.799999 H 834.700012 V 474.5 Z" class="st11" style="fill: rgb(230, 231, 232);"/>
		</g><g transform="matrix(0.9999999999999999, 0, 0, 0.9999999999999999, 3.637978807091713e-12, 9.094947017729282e-13)">
			<path d="M 834.700012 553.799988 H 875.500011 V 595.099987 H 834.700012 V 553.799988 Z" class="st11" style="fill: rgb(230, 231, 232);"/>
		</g><g transform="matrix(0.9999999999999999, 0, 0, 0.9999999999999999, 3.637978807091713e-12, 9.094947017729282e-13)">
			<g>
				<path d="M 829.4000244140625 450.1000061035156 L 914.0999755859375 383.5 L 998.2000122070312 450.1000061035156 L 1023.7000122070312 450.1000061035156 L 914.0999755859375 359.70001220703125 L 804.4000244140625 450.1000061035156 Z"/>
			</g>
		</g><g transform="matrix(0.9999999999999999, 0, 0, 0.9999999999999999, 3.637978807091713e-12, 9.094947017729282e-13)">
			<path d="M 998 450.100006 H 1023.700001 V 460.600006 H 998 V 450.100006 Z" style="fill: rgb(0, 0, 0);"/>
		</g><g transform="matrix(0.9999999999999999, 0, 0, 0.9999999999999999, 3.637978807091713e-12, 9.094947017729282e-13)">
			<path d="M 804.400024 450.100006 H 830.100025 V 460.600006 H 804.400024 V 450.100006 Z"/>
		</g><path d="M 1003.5 484.399994 L 1059.300049 529.5 L 1006.200012 534.700012" class="st9" style="fill: rgb(220, 186, 142);" transform="matrix(0.9999999999999999, 0, 0, 0.9999999999999999, 3.637978807091713e-12, 9.094947017729282e-13)"/><g transform="matrix(0.9999999999999999, 0, 0, 0.9999999999999999, 3.637978807091713e-12, 9.094947017729282e-13)">
			<g>
				<path d="M 1010.5 473.1000061035156 L 1010.5 495.6000061035156 L 1053.4000244140625 529.5 L 1079 529.5 Z" style="fill: rgb(0, 0, 0);"/>
			</g>
		</g><g transform="matrix(0.9999999999999999, 0, 0, 0.9999999999999999, 3.637978807091713e-12, 9.094947017729282e-13)">
			<path d="M 1053.199951 529.5 H 1078.899952 V 540 H 1053.199951 V 529.5 Z"/>
		</g>
<g transform="matrix(0.9999999999999999, 0, 0, 0.9999999999999999, 1.8189894035458565e-12, 4.547473508864641e-13)">
		<path d="M886.2,677.6c-3.6,0-6.5-3-6.5-6.6v-52.2c0-3.6,2.9-6.6,6.5-6.6c3.6,0,6.5,3,6.5,6.6V671&#10;&#9;&#9;&#9;C892.7,674.7,889.8,677.6,886.2,677.6z"/>
	</g><path class="st12" d="M921.6,607.2c0,19.9-15.9,36-35.5,36c-19.6,0-35.5-16.1-35.5-36c0-19.9,15.9-36,35.5-36&#10;&#9;&#9;&#9;C905.8,571.2,921.6,587.3,921.6,607.2z" style="fill: rgb(55, 120, 77);" transform="matrix(0.9999999999999999, 0, 0, 0.9999999999999999, 3.637978807091713e-12, 9.094947017729282e-13)"/><path d="M845.9,677.1c-3.6,0-6.5-3-6.5-6.6v-68.9c0-3.6,2.9-6.6,6.5-6.6c3.6,0,6.5,3,6.5,6.6v68.9&#10;&#9;&#9;&#9;C852.4,674.2,849.5,677.1,845.9,677.1z" transform="matrix(0.9999999999999999, 0, 0, 0.9999999999999999, 3.637978807091713e-12, 9.094947017729282e-13)"/><path class="st12" d="M892.7,586.4c0,26.2-20.9,47.4-46.8,47.4c-25.8,0-46.8-21.2-46.8-47.4s20.9-47.4,46.8-47.4&#10;&#9;&#9;&#9;C871.8,538.9,892.7,560.2,892.7,586.4z" style="fill: rgb(55, 120, 77);" transform="matrix(0.9999999999999999, 0, 0, 0.9999999999999999, 3.637978807091713e-12, 9.094947017729282e-13)"/><path class="st2" d="M886.5,571.2c-0.1,0-0.2,0-0.4,0c-19.6,0-35.5,16.1-35.5,36c0,19.9,15.9,36,35.5,36c0.1,0,0.2,0,0.4,0V571.2z&#10;&#9;&#9;&#9;" style="fill: rgb(62, 133, 86);" transform="matrix(0.9999999999999999, 0, 0, 0.9999999999999999, 3.637978807091713e-12, 9.094947017729282e-13)"/><path class="st2" d="M845.4,539c-25.6,0.3-46.2,21.4-46.2,47.4c0,26,20.7,47.1,46.2,47.4V539z" style="fill: rgb(62, 133, 86);" transform="matrix(0.9999999999999999, 0, 0, 0.9999999999999999, 3.637978807091713e-12, 9.094947017729282e-13)"/>
<path class="st12" d="M478.4,586.4c0,26.2-20.9,47.4-46.8,47.4c-25.8,0-46.8-21.2-46.8-47.4s20.9-47.4,46.8-47.4&#10;&#9;&#9;C457.5,538.9,478.4,560.2,478.4,586.4z" style="fill: rgb(55, 120, 77);" transform="matrix(0.9999999999999999, 0, 0, 0.9999999999999999, 1.8189894035458565e-12, 4.547473508864641e-13)"/>
<path class="st2" d="M434.1,539.1c-0.8,0-1.6-0.1-2.4-0.1c-25.8,0-46.8,21.2-46.8,47.4s20.9,47.4,46.8,47.4c0.8,0,1.6-0.1,2.4-0.1&#10;&#9;&#9;V539.1z" style="fill: rgb(62, 133, 86);" transform="matrix(0.9999999999999999, 0, 0, 0.9999999999999999, 1.8189894035458565e-12, 4.547473508864641e-13)"/>
<g transform="matrix(0.9999999999999999, 0, 0, 0.9999999999999999, 1.8189894035458565e-12, 4.547473508864641e-13)">
		<path d="M 502.299988 519.900024 H 509.599988 V 532.200025 H 502.299988 V 519.900024 Z"/>
	</g>
<g transform="matrix(0.9999999999999999, 0, 0, 0.9999999999999999, 1.8189894035458565e-12, 4.547473508864641e-13)">
		<path d="M 714.700012 519.900024 H 722.000012 V 532.200025 H 714.700012 V 519.900024 Z"/>
	</g>
<g transform="matrix(0.9999999999999999, 0, 0, 0.9999999999999999, 1.8189894035458565e-12, 4.547473508864641e-13)">
		<path class="st9" d="M489.7,530.3L446.6,603v70.6h-4.9v19.1h5.5v5.7h76.9c0,0,2.5-39.4,42-39.4c39.5,0,40.2,39.4,40.2,39.4h216.9&#10;&#9;&#9;&#9;c0,0,1.8-38.8,41.7-38.8c35.2,0,41.8,38.8,41.8,38.8h49.2V691h8.5v-12.3h-12.1v-27.1c0,0,1.7-51.7-118.7-51.7H819l-38.6-56&#10;&#9;&#9;&#9;c0,0-10.3-13.5-71-13.5C648.8,530.3,489.7,530.3,489.7,530.3z" style="fill: rgb(220, 186, 142);"/>
	</g>
<g transform="matrix(0.9999999999999999, 0, 0, 0.9999999999999999, 1.8189894035458565e-12, 4.547473508864641e-13)">
		<path d="M 609.099976 701 A 43 43.599998 0 0 1 566.099976 744.599998 A 43 43.599998 0 0 1 523.099976 701 A 43 43.599998 0 0 1 566.099976 657.400002 A 43 43.599998 0 0 1 609.099976 701 Z" style="fill: rgb(0, 0, 0);"/>
	</g>
<g transform="matrix(0.9999999999999999, 0, 0, 0.9999999999999999, 1.8189894035458565e-12, 4.547473508864641e-13)">
		<path d="M 906.900024 701 A 43 43.599998 0 0 1 863.900024 744.599998 A 43 43.599998 0 0 1 820.900024 701 A 43 43.599998 0 0 1 863.900024 657.400002 A 43 43.599998 0 0 1 906.900024 701 Z" style="fill: rgb(0, 0, 0);"/>
	</g>
<g transform="matrix(0.9999999999999999, 0, 0, 0.9999999999999999, 1.8189894035458565e-12, 4.547473508864641e-13)">
		<path class="st4" d="M885.1,701c0,11.9-9.5,21.5-21.2,21.5c-11.7,0-21.2-9.6-21.2-21.5c0-11.9,9.5-21.5,21.2-21.5&#10;&#9;&#9;&#9;C875.6,679.5,885.1,689.1,885.1,701z" style="fill: rgb(255, 255, 255);"/>
	</g>
<g transform="matrix(0.9999999999999999, 0, 0, 0.9999999999999999, 1.8189894035458565e-12, 4.547473508864641e-13)">
		<path class="st4" d="M587.2,701c0,11.9-9.5,21.5-21.2,21.5c-11.7,0-21.2-9.6-21.2-21.5c0-11.9,9.5-21.5,21.2-21.5&#10;&#9;&#9;&#9;C577.8,679.5,587.2,689.1,587.2,701z" style="fill: rgb(255, 255, 255);"/>
	</g>
<g transform="matrix(0.9999999999999999, 0, 0, 0.9999999999999999, 1.8189894035458565e-12, 4.547473508864641e-13)">
		<path class="st11" d="M483.2,542h97.1c5.3,0,9.7,4.4,9.7,9.9V590c0,5.4-4.4,9.8-9.7,9.8H448.4" style="fill: rgb(230, 231, 232);"/>
	</g>
<g transform="matrix(0.9999999999999999, 0, 0, 0.9999999999999999, 1.8189894035458565e-12, 4.547473508864641e-13)">
		<path class="st11" d="M819,599.9H716.1c-5.3,0-9.7-4.4-9.7-9.8v-38.2c0-5.4,4.4-9.9,9.7-9.9h62.2c0,0,1.2,0.5,2.9,3" style="fill: rgb(230, 231, 232);"/>
	</g>
<g transform="matrix(0.9999999999999999, 0, 0, 0.9999999999999999, 1.8189894035458565e-12, 4.547473508864641e-13)">
		<path d="M639,622.7c0,1.4-1.1,2.5-2.4,2.5h-27.9c-1.3,0-2.4-1.1-2.4-2.5v-3.1c0-1.4,1.1-2.5,2.4-2.5h27.9c1.3,0,2.4,1.1,2.4,2.5&#10;&#9;&#9;&#9;V622.7z"/>
	</g>
<g transform="matrix(0.9999999999999999, 0, 0, 0.9999999999999999, 1.8189894035458565e-12, 4.547473508864641e-13)">
		<path d="M744.7,622.7c0,1.4-1.1,2.5-2.4,2.5h-27.9c-1.3,0-2.4-1.1-2.4-2.5v-3.1c0-1.4,1.1-2.5,2.4-2.5h27.9c1.3,0,2.4,1.1,2.4,2.5&#10;&#9;&#9;&#9;V622.7z"/>
	</g>
<g transform="matrix(0.9999999999999999, 0, 0, 0.9999999999999999, 1.8189894035458565e-12, 4.547473508864641e-13)">
		<path class="st11" d="M601.3,551.9c0-5.4,4.4-9.9,9.7-9.9h75.8c5.3,0,9.7,4.4,9.7,9.9V590c0,5.4-4.4,9.8-9.7,9.8H611&#10;&#9;&#9;&#9;c-5.3,0-9.7-4.4-9.7-9.8V551.9z" style="fill: rgb(230, 231, 232);"/>
	</g>
<g transform="matrix(0.9999999999999999, 0, 0, 0.9999999999999999, 1.8189894035458565e-12, 4.547473508864641e-13)">
		<path class="st13" d="M448.4,599.9" style="fill: rgb(223, 243, 251);"/>
	</g>
<g transform="matrix(0.9999999999999999, 0, 0, 0.9999999999999999, 1.8189894035458565e-12, 4.547473508864641e-13)">
		<path class="st4" d="M590.1,551.9c0-5.4-4.4-9.9-9.7-9.9h-97.1l-34.8,57.9h60.9" style="fill: rgb(255, 255, 255);"/>
	</g>
<g transform="matrix(0.9999999999999999, 0, 0, 0.9999999999999999, 1.8189894035458565e-12, 4.547473508864641e-13)">
		<path class="st4" d="M716.1,599.9c-5.3,0-9.7-4.4-9.7-9.8v-38.2c0-5.4,4.4-9.9,9.7-9.9h62.2c0,0,1.2,0.5,2.9,3" style="fill: rgb(255, 255, 255);"/>
	</g>
<g transform="matrix(0.9999999999999999, 0, 0, 0.9999999999999999, 1.8189894035458565e-12, 4.547473508864641e-13)">
		<path class="st4" d="M611,599.9c-5.3,0-9.7-4.4-9.7-9.8v-38.2c0-5.4,4.4-9.9,9.7-9.9h75.8c5.3,0,9.7,4.4,9.7,9.9" style="fill: rgb(255, 255, 255);"/>
	</g>
<g transform="matrix(0.9999999999999999, 0, 0, 0.9999999999999999, 1.8189894035458565e-12, 4.547473508864641e-13)">
		<g>
			<path d="M441.8,673.6v18.9H515c1-6.7,3.1-13.1,6.2-18.9H441.8z"/>
		</g>
	</g><g transform="matrix(0.9999999999999999, 0, 0, 0.9999999999999999, 3.637978807091713e-12, 9.094947017729282e-13)">
			<path d="M964.4,673.6h-55.6c3.1,5.8,5.2,12.1,6.2,18.9h49.5V673.6z"/>
		</g><g transform="matrix(0.9999999999999999, 0, 0, 0.9999999999999999, 3.637978807091713e-12, 9.094947017729282e-13)">
			<path d="M819,673.6H610.9c3.1,5.8,5.2,12.1,6.2,18.9h195.8c0.9-6.1,2.8-12,5.4-17.3L819,673.6z"/>
		</g>
<g transform="matrix(0.9999999999999999, 0, 0, 0.9999999999999999, 1.8189894035458565e-12, 4.547473508864641e-13)">
		<path d="M 429.200012 631.099976 H 434.100012 V 668.799976 H 429.200012 V 631.099976 Z"/>
	</g>
<g transform="matrix(0.9999999999999999, 0, 0, 0.9999999999999999, 1.8189894035458565e-12, 4.547473508864641e-13)">
		<path class="st14" d="M952.3,649.2c-0.1,0-0.1,0-0.2,0h-9.3c-4,0-8.2,3.2-9.3,7.1l-2,6.8c-1.1,3.9,1.2,7.1,5.2,7.1h15.4&#10;&#9;&#9;&#9;c0.1,0,0.1,0,0.2,0V649.2z" style="fill: rgb(255, 226, 143);"/>
	</g>
<g transform="matrix(0.9999999999999999, 0, 0, 0.9999999999999999, 1.8189894035458565e-12, 4.547473508864641e-13)">
		<path class="st15" d="M484,663l-2-6.8c-1.1-3.9-5.3-7.1-9.3-7.1h-25.5c-0.1,0-0.3,0-0.4,0V670c0.1,0,0.3,0,0.4,0h31.6&#10;&#9;&#9;&#9;C482.8,670.1,485.1,666.9,484,663z" style="fill: rgb(206, 75, 84);"/>
	</g>
<g transform="matrix(0.9999999999999999, 0, 0, 0.9999999999999999, 1.8189894035458565e-12, 4.547473508864641e-13)">
		<path d="M439.1,671.6c0,7.3-5.4,13.2-12.1,13.2l0,0c-6.7,0-12.1-5.9-12.1-13.2v-59c0-7.3,5.4-13.2,12.1-13.2l0,0&#10;&#9;&#9;&#9;c6.7,0,12.1,5.9,12.1,13.2V671.6z"/>
	</g>
<g transform="matrix(0.9999999999999999, 0, 0, 0.9999999999999999, 1.8189894035458565e-12, 4.547473508864641e-13)">
		<path d="M735.8,526H492.5c-2,0-3.6-1.7-3.6-3.7c0-2,1.6-3.7,3.6-3.7h243.2c2,0,3.6,1.7,3.6,3.7C739.4,524.4,737.8,526,735.8,526z"/>
	</g>
<g transform="matrix(0.9999999999999999, 0, 0, 0.9999999999999999, 1.8189894035458565e-12, 4.547473508864641e-13)">
		<path d="M569.3,459.9c-1.3,0-2.4-1.1-2.4-2.5v-10c0-1.4,1.1-2.5,2.4-2.5h22.5c1.3,0,2.4,1.1,2.4,2.5v8.4c0,1.4-1.1,2.5-2.4,2.5&#10;&#9;&#9;&#9;c-1.3,0-2.4-1.1-2.4-2.5V450h-17.7v7.5C571.7,458.8,570.6,459.9,569.3,459.9z"/>
	</g>
<g transform="matrix(0.9999999999999999, 0, 0, 0.9999999999999999, 1.8189894035458565e-12, 4.547473508864641e-13)">
		<path d="M 530.5 455.899994 H 630.5 V 518.699993 H 530.5 V 455.899994 Z" class="st10" style="fill: rgb(88, 70, 49);"/>
	</g>
<g transform="matrix(0.9999999999999999, 0, 0, 0.9999999999999999, 1.8189894035458565e-12, 4.547473508864641e-13)">
		<path class="st16" d="M556,522.4c-2,0-3.6-1.7-3.6-3.7v-62.3c0-2,1.6-3.7,3.6-3.7c2,0,3.6,1.7,3.6,3.7v62.3&#10;&#9;&#9;&#9;C559.6,520.7,558,522.4,556,522.4z" style="fill: rgb(238, 207, 118);"/>
	</g>
<g transform="matrix(0.9999999999999999, 0, 0, 0.9999999999999999, 1.8189894035458565e-12, 4.547473508864641e-13)">
		<path class="st16" d="M608.5,522.4c-2,0-3.6-1.7-3.6-3.7v-62.3c0-2,1.6-3.7,3.6-3.7c2,0,3.6,1.7,3.6,3.7v62.3&#10;&#9;&#9;&#9;C612.1,520.7,610.5,522.4,608.5,522.4z" style="fill: rgb(238, 207, 118);"/>
	</g>
<g transform="matrix(0.9999999999999999, 0, 0, 0.9999999999999999, 1.8189894035458565e-12, 4.547473508864641e-13)">
		<path class="st17" d="M619.4,481.6c-0.6,2.6-3.3,4.2-5.9,3.6l-21.7-5.4c-2.6-0.7-4.2-3.3-3.5-6l0.9-3.9c0.6-2.6,3.3-4.2,5.9-3.6&#10;&#9;&#9;&#9;l21.7,5.4c2.6,0.6,4.2,3.3,3.5,6L619.4,481.6z" style="fill: rgb(243, 124, 132);"/>
	</g>
<g transform="matrix(0.9999999999999999, 0, 0, 0.9999999999999999, 1.8189894035458565e-12, 4.547473508864641e-13)">
		<path class="st18" d="M574.6,496c0.6,2.6-1,5.3-3.6,5.9l-21.7,5.1c-2.6,0.6-5.2-1-5.8-3.7l-0.9-3.9c-0.6-2.6,1-5.3,3.6-5.9&#10;&#9;&#9;&#9;l21.7-5.1c2.6-0.6,5.2,1,5.8,3.7L574.6,496z" style="fill: rgb(130, 199, 222);"/>
	</g>
<g transform="matrix(0.9999999999999999, 0, 0, 0.9999999999999999, 1.8189894035458565e-12, 4.547473508864641e-13)">
		<path d="M670.3,481.3c-1.3,0-2.4-1.1-2.4-2.5v-10.2c0-1.4,1.1-2.5,2.4-2.5h16.4c1.3,0,2.4,1.1,2.4,2.5v9.1c0,1.4-1.1,2.5-2.4,2.5&#10;&#9;&#9;&#9;c-1.3,0-2.4-1.1-2.4-2.5v-6.6h-11.6v7.7C672.7,480.2,671.6,481.3,670.3,481.3z"/>
	</g>
<g transform="matrix(0.9999999999999999, 0, 0, 0.9999999999999999, 1.8189894035458565e-12, 4.547473508864641e-13)">
		<path d="M 642 475.799988 H 715 V 518.699989 H 642 V 475.799988 Z" class="st19" style="fill: rgb(117, 93, 65);"/>
	</g>
<g transform="matrix(0.9999999999999999, 0, 0, 0.9999999999999999, 1.8189894035458565e-12, 4.547473508864641e-13)" style="opacity: 0.1;">
		<path d="M 530.5 518.700012 L 530.5 455.899994 L 630.5 455.899994" class="st4" style="fill: rgb(255, 255, 255);"/>
	</g>
<g transform="matrix(0.9999999999999999, 0, 0, 0.9999999999999999, 1.8189894035458565e-12, 4.547473508864641e-13)" style="opacity: 0.1;">
		<path d="M 642 518.700012 L 642 475.799988 L 715 475.799988" class="st4" style="fill: rgb(255, 255, 255);"/>
	</g>
<g transform="matrix(0.9999999999999999, 0, 0, 0.9999999999999999, 1.8189894035458565e-12, 4.547473508864641e-13)">
		<path class="st16" d="M660.6,522.4c-2,0-3.6-1.7-3.6-3.7v-43.2c0-2,1.6-3.7,3.6-3.7c2,0,3.6,1.7,3.6,3.7v43.2&#10;&#9;&#9;&#9;C664.2,520.7,662.6,522.4,660.6,522.4z" style="fill: rgb(238, 207, 118);"/>
	</g>
<g transform="matrix(0.9999999999999999, 0, 0, 0.9999999999999999, 1.8189894035458565e-12, 4.547473508864641e-13)">
		<path class="st16" d="M698.9,522.4c-2,0-3.6-1.7-3.6-3.7v-43.2c0-2,1.6-3.7,3.6-3.7c2,0,3.6,1.7,3.6,3.7v43.2&#10;&#9;&#9;&#9;C702.5,520.7,700.9,522.4,698.9,522.4z" style="fill: rgb(238, 207, 118);"/>
	</g>
<g transform="matrix(0.9999999999999999, 0, 0, 0.9999999999999999, 1.8189894035458565e-12, 4.547473508864641e-13)">
		<path class="st18" d="M675.7,493.7c0.6,2.6-1,5.3-3.5,6l-15.9,4c-2.6,0.6-5.2-1-5.9-3.6l-0.3-1.4c-0.6-2.6,1-5.3,3.5-6l15.9-4&#10;&#9;&#9;&#9;c2.6-0.6,5.2,1,5.9,3.6L675.7,493.7z" style="fill: rgb(130, 199, 222);"/>
	</g>
<g transform="matrix(0.9999999999999999, 0, 0, 0.9999999999999999, 1.8189894035458565e-12, 4.547473508864641e-13)">
		<path class="st17" d="M706.7,504.5c-0.8,2.4-3.5,3.7-6,2.9l-11.2-3.7c-2.5-0.8-4-3.5-3.2-5.9c0.8-2.4,3.5-3.7,6-2.9l11.2,3.7&#10;&#9;&#9;&#9;C706.1,499.4,707.5,502,706.7,504.5z" style="fill: rgb(243, 124, 132);"/>
	</g>
<path d="M 475.6000061035156 237.10000610351562 L 427.1000061035156 334.1000061035156 L 451.79998779296875 322.79998779296875 L 442.5 367.70001220703125 L 475.6000061035156 329 L 495.70001220703125 350 L 500.70001220703125 318.70001220703125 L 520 325.8999938964844 Z" class="st7" style="fill: rgb(215, 217, 216);" transform="matrix(0.9999999999999999, 0, 0, 0.9999999999999999, 1.8189894035458565e-12, 4.547473508864641e-13)"/>
<path d="M 355.700012 345.600006 L 299.200012 473.700012 L 327.399994 452.700012 L 337.200012 518.599976 L 355.700012 473.700012 L 382.600006 490 L 390.200012 455.899994 L 413 475.799988" class="st7" style="fill: rgb(215, 217, 216);" transform="matrix(0.9999999999999999, 0, 0, 0.9999999999999999, 1.8189894035458565e-12, 4.547473508864641e-13)"/>
<path d="M 474.79998779296875 329.8999938964844 L 474.79998779296875 238.6999969482422 L 427.1000061035156 334.1000061035156 L 451.79998779296875 322.79998779296875 L 442.5 367.70001220703125 Z" class="st4" style="fill: rgb(255, 255, 255);" transform="matrix(0.9999999999999999, 0, 0, 0.9999999999999999, 1.8189894035458565e-12, 4.547473508864641e-13)"/>
<path d="M 356.1000061035156 346.6000061035156 L 355.70001220703125 345.6000061035156 L 299.20001220703125 473.70001220703125 L 327.3999938964844 452.70001220703125 L 337.20001220703125 518.5999755859375 L 355.70001220703125 473.70001220703125 L 356.1000061035156 474 Z" class="st4" style="fill: rgb(255, 255, 255);" transform="matrix(0.9999999999999999, 0, 0, 0.9999999999999999, 1.8189894035458565e-12, 4.547473508864641e-13)"/>
<path d="M1019.5,674.8c-3.6,0-6.5-3-6.5-6.6v-67.9c0-3.6,2.9-6.6,6.5-6.6s6.5,3,6.5,6.6v67.9C1026,671.9,1023.1,674.8,1019.5,674.8&#10;&#9;&#9;z" transform="matrix(0.9999999999999999, 0, 0, 0.9999999999999999, 1.8189894035458565e-12, 4.547473508864641e-13)"/>
<path class="st12" d="M1065.6,585.2c0,25.8-20.6,46.8-46.1,46.8c-25.5,0-46.1-20.9-46.1-46.8c0-25.8,20.6-46.8,46.1-46.8&#10;&#9;&#9;C1045,538.5,1065.6,559.4,1065.6,585.2z" style="fill: rgb(55, 120, 77);" transform="matrix(0.9999999999999999, 0, 0, 0.9999999999999999, 1.8189894035458565e-12, 4.547473508864641e-13)"/>
<path d="M1213.4,677.6c-3.6,0-6.5-3-6.5-6.6v-52.2c0-3.6,2.9-6.6,6.5-6.6s6.5,3,6.5,6.6V671C1219.9,674.7,1217,677.6,1213.4,677.6z&#10;&#9;&#9;" transform="matrix(0.9999999999999999, 0, 0, 0.9999999999999999, 1.8189894035458565e-12, 4.547473508864641e-13)"/>
<path class="st12" d="M1248.9,607.2c0,19.9-15.9,36-35.5,36s-35.5-16.1-35.5-36c0-19.9,15.9-36,35.5-36S1248.9,587.3,1248.9,607.2z&#10;&#9;&#9;" style="fill: rgb(55, 120, 77);" transform="matrix(0.9999999999999999, 0, 0, 0.9999999999999999, 1.8189894035458565e-12, 4.547473508864641e-13)"/>
<path d="M322.5,677.6c-3.6,0-6.5-3-6.5-6.6v-52.2c0-3.6,2.9-6.6,6.5-6.6c3.6,0,6.5,3,6.5,6.6V671&#10;&#9;&#9;C329,674.7,326.1,677.6,322.5,677.6z" transform="matrix(0.9999999999999999, 0, 0, 0.9999999999999999, 1.8189894035458565e-12, 4.547473508864641e-13)"/>
<path class="st12" d="M358,607.2c0,19.9-15.9,36-35.5,36c-19.6,0-35.5-16.1-35.5-36c0-19.9,15.9-36,35.5-36&#10;&#9;&#9;C342.1,571.2,358,587.3,358,607.2z" style="fill: rgb(55, 120, 77);" transform="matrix(0.9999999999999999, 0, 0, 0.9999999999999999, 1.8189894035458565e-12, 4.547473508864641e-13)"/>
<path d="M1173.1,677.1c-3.6,0-6.5-3-6.5-6.6v-68.9c0-3.6,2.9-6.6,6.5-6.6s6.5,3,6.5,6.6v68.9&#10;&#9;&#9;C1179.6,674.2,1176.7,677.1,1173.1,677.1z" transform="matrix(0.9999999999999999, 0, 0, 0.9999999999999999, 1.8189894035458565e-12, 4.547473508864641e-13)"/>
<path class="st12" d="M1219.9,586.4c0,26.2-20.9,47.4-46.8,47.4s-46.8-21.2-46.8-47.4s20.9-47.4,46.8-47.4&#10;&#9;&#9;S1219.9,560.2,1219.9,586.4z" style="fill: rgb(55, 120, 77);" transform="matrix(0.9999999999999999, 0, 0, 0.9999999999999999, 1.8189894035458565e-12, 4.547473508864641e-13)"/>
<path d="M280.9,677.1c-3.6,0-6.5-3-6.5-6.6v-68.9c0-3.6,2.9-6.6,6.5-6.6c3.6,0,6.5,3,6.5,6.6v68.9&#10;&#9;&#9;C287.4,674.2,284.5,677.1,280.9,677.1z" transform="matrix(0.9999999999999999, 0, 0, 0.9999999999999999, 1.8189894035458565e-12, 4.547473508864641e-13)"/>
<path class="st12" d="M327.7,586.4c0,26.2-20.9,47.4-46.8,47.4c-25.8,0-46.8-21.2-46.8-47.4s20.9-47.4,46.8-47.4&#10;&#9;&#9;C306.7,538.9,327.7,560.2,327.7,586.4z" style="fill: rgb(55, 120, 77);" transform="matrix(0.9999999999999999, 0, 0, 0.9999999999999999, 1.8189894035458565e-12, 4.547473508864641e-13)"/>
<path class="st2" d="M1021,538.6c-0.5,0-1-0.1-1.5-0.1c-25.5,0-46.1,20.9-46.1,46.8c0,25.8,20.6,46.8,46.1,46.8&#10;&#9;&#9;c0.5,0,1-0.1,1.5-0.1V538.6z" style="fill: rgb(62, 133, 86);" transform="matrix(0.9999999999999999, 0, 0, 0.9999999999999999, 1.8189894035458565e-12, 4.547473508864641e-13)"/>
<path class="st2" d="M1213.8,571.2c-0.1,0-0.3,0-0.4,0c-19.6,0-35.5,16.1-35.5,36c0,19.9,15.9,36,35.5,36c0.1,0,0.3,0,0.4,0V571.2z&#10;&#9;&#9;" style="fill: rgb(62, 133, 86);" transform="matrix(0.9999999999999999, 0, 0, 0.9999999999999999, 1.8189894035458565e-12, 4.547473508864641e-13)"/>
<path class="st2" d="M323.6,571.3c-0.4,0-0.8-0.1-1.1-0.1c-19.6,0-35.5,16.1-35.5,36c0,19.9,15.9,36,35.5,36c0.4,0,0.8,0,1.1-0.1&#10;&#9;&#9;V571.3z" style="fill: rgb(62, 133, 86);" transform="matrix(0.9999999999999999, 0, 0, 0.9999999999999999, 1.8189894035458565e-12, 4.547473508864641e-13)"/>
<path class="st2" d="M1172.6,539c-25.6,0.3-46.2,21.4-46.2,47.4c0,26,20.7,47.1,46.2,47.4V539z" style="fill: rgb(62, 133, 86);" transform="matrix(0.9999999999999999, 0, 0, 0.9999999999999999, 1.8189894035458565e-12, 4.547473508864641e-13)"/>
<path class="st2" d="M280.3,539c-25.6,0.3-46.2,21.4-46.2,47.4c0,26,20.6,47.1,46.2,47.4V539z" style="fill: rgb(62, 133, 86);" transform="matrix(0.9999999999999999, 0, 0, 0.9999999999999999, 1.8189894035458565e-12, 4.547473508864641e-13)"/>
<path d="M 859.699988 357.5 A 7.4 7.5 0 0 1 852.299988 365 A 7.4 7.5 0 0 1 844.899988 357.5 A 7.4 7.5 0 0 1 852.299988 350 A 7.4 7.5 0 0 1 859.699988 357.5 Z" class="st10" style="fill: rgb(88, 70, 49);" transform="matrix(0.9999999999999999, 0, 0, 0.9999999999999999, 1.8189894035458565e-12, 4.547473508864641e-13)"/>
<path class="st10" d="M837,345.5c0,5.5,4.4,10,9.8,10c5.4,0,9.8-4.5,9.8-10c0-5.5-4.4-9.9-9.8-9.9C841.4,335.5,837,340,837,345.5z" style="fill: rgb(88, 70, 49);" transform="matrix(0.9999999999999999, 0, 0, 0.9999999999999999, 1.8189894035458565e-12, 4.547473508864641e-13)"/>
<path class="st10" d="M819.9,308.2c0,7.9,6.3,14.2,14,14.2c7.7,0,14-6.4,14-14.2c0-7.9-6.3-14.2-14-14.2&#10;&#9;&#9;C826.2,294,819.9,300.4,819.9,308.2z" style="fill: rgb(88, 70, 49);" transform="matrix(0.9999999999999999, 0, 0, 0.9999999999999999, 1.8189894035458565e-12, 4.547473508864641e-13)"/>
<path class="st10" d="M807.5,288.2c0,10.5,8.4,19.1,18.8,19.1c10.4,0,18.8-8.6,18.8-19.1c0-10.6-8.4-19.1-18.8-19.1&#10;&#9;&#9;C816,269.1,807.5,277.6,807.5,288.2z" style="fill: rgb(88, 70, 49);" transform="matrix(0.9999999999999999, 0, 0, 0.9999999999999999, 1.8189894035458565e-12, 4.547473508864641e-13)"/>
<path class="st4" d="M1051,239.4c-3.9-1.5-7.7-2.8-11.6-3.7c-3.8-1-7.7-1.5-11.4-1.4c-1.8,0.1-3.6,0.4-5.2,0.9&#10;&#9;&#9;c-0.8,0.3-1.6,0.6-2.3,1c-0.7,0.4-1.4,0.9-2,1.4c-0.6,0.5-1.2,1.1-1.7,1.8c-0.5,0.7-1,1.3-1.4,2.1c-0.4,0.7-0.8,1.6-1.1,2.4&#10;&#9;&#9;c-0.3,0.8-0.5,1.7-0.8,2.6l0,0.1c-0.6,1.7-2.4,2.7-4.1,2.1c-1-0.3-1.8-1.1-2.1-2.1c-0.6-1.7-1.2-3.5-2-5c-0.8-1.5-1.9-2.9-3.1-4&#10;&#9;&#9;c-2.4-2.3-5.7-3.4-9.3-3.6c-1.8-0.1-3.7,0-5.6,0.2c-1.9,0.2-3.8,0.6-5.7,1.1c-1.9,0.5-3.8,1.1-5.8,1.7c-1.9,0.7-3.8,1.4-5.7,2.2&#10;&#9;&#9;c3.1-2.8,6.6-5,10.4-6.9c3.8-1.8,7.9-3.2,12.4-3.4c1.1-0.1,2.3-0.1,3.4,0c1.2,0.1,2.3,0.3,3.5,0.6c1.1,0.3,2.3,0.8,3.4,1.3&#10;&#9;&#9;c1.1,0.5,2.1,1.2,3.1,2c1,0.7,1.8,1.7,2.6,2.5c0.7,1,1.5,1.9,2,2.9c1.2,2,2.1,4.2,2.8,6.3l-6.2,0.1c0.4-1.1,0.6-2.2,1.1-3.3&#10;&#9;&#9;c0.4-1.1,0.9-2.2,1.5-3.2c0.5-1.1,1.3-2,2-3c0.8-0.9,1.6-1.8,2.6-2.6c1-0.7,2-1.4,3.1-1.9c1.1-0.6,2.2-0.9,3.4-1.2&#10;&#9;&#9;c2.3-0.6,4.6-0.7,6.8-0.5c4.5,0.3,8.6,1.7,12.4,3.5C1044.3,234.5,1047.8,236.7,1051,239.4z" style="fill: rgb(255, 255, 255);" transform="matrix(0.9999999999999999, 0, 0, 0.9999999999999999, 1.8189894035458565e-12, 4.547473508864641e-13)"/>
<path class="st4" d="M582.2,335.9c3.9-1.5,7.7-2.8,11.6-3.7c3.8-1,7.7-1.5,11.4-1.4c1.8,0.1,3.6,0.4,5.2,0.9c0.8,0.3,1.6,0.6,2.3,1&#10;&#9;&#9;c0.7,0.4,1.4,0.9,2,1.4c0.6,0.5,1.2,1.1,1.7,1.8c0.5,0.7,1,1.3,1.4,2.1c0.4,0.7,0.8,1.6,1.1,2.4c0.3,0.8,0.5,1.7,0.8,2.6l0,0.1&#10;&#9;&#9;c0.6,1.7,2.4,2.7,4.1,2.1c1-0.3,1.8-1.1,2.1-2.1c0.6-1.7,1.2-3.5,2-5c0.8-1.5,1.9-2.9,3.1-4c2.4-2.3,5.7-3.4,9.3-3.6&#10;&#9;&#9;c1.8-0.1,3.7,0,5.6,0.2c1.9,0.2,3.8,0.6,5.7,1.1c1.9,0.5,3.8,1.1,5.8,1.7c1.9,0.7,3.8,1.4,5.7,2.2c-3.1-2.8-6.6-5-10.4-6.9&#10;&#9;&#9;c-3.8-1.8-7.9-3.2-12.4-3.4c-1.1-0.1-2.3-0.1-3.4,0c-1.2,0.1-2.3,0.3-3.5,0.6c-1.1,0.3-2.3,0.8-3.4,1.3c-1.1,0.5-2.1,1.2-3.1,2&#10;&#9;&#9;c-1,0.7-1.8,1.7-2.6,2.5c-0.7,1-1.5,1.9-2,2.9c-1.2,2-2.1,4.2-2.8,6.3l6.2,0.1c-0.4-1.1-0.6-2.2-1.1-3.3c-0.4-1.1-0.9-2.2-1.5-3.2&#10;&#9;&#9;c-0.5-1.1-1.3-2-2-3c-0.8-0.9-1.6-1.8-2.6-2.6c-1-0.7-2-1.4-3.1-1.9c-1.1-0.6-2.2-0.9-3.4-1.2c-2.3-0.6-4.6-0.7-6.8-0.5&#10;&#9;&#9;c-4.5,0.3-8.6,1.7-12.4,3.5C588.9,331.1,585.3,333.2,582.2,335.9z" style="fill: rgb(255, 255, 255);" transform="matrix(0.9999999999999999, 0, 0, 0.9999999999999999, 1.8189894035458565e-12, 4.547473508864641e-13)"/>
<path class="st4" d="M685.8,307.5c-2.8-1-5.5-2-8.3-2.6c-2.7-0.7-5.5-1.1-8.2-1c-1.3,0.1-2.6,0.3-3.7,0.7c-0.6,0.2-1.1,0.4-1.6,0.7&#10;&#9;&#9;c-0.5,0.3-1,0.6-1.4,1c-0.4,0.4-0.8,0.8-1.2,1.3c-0.3,0.5-0.7,0.9-1,1.5c-0.3,0.5-0.5,1.1-0.8,1.7c-0.2,0.6-0.4,1.2-0.6,1.9l0,0.1&#10;&#9;&#9;c-0.4,1.2-1.7,1.9-3,1.5c-0.7-0.2-1.3-0.8-1.5-1.5c-0.4-1.2-0.8-2.5-1.5-3.6c-0.6-1.1-1.3-2-2.2-2.8c-1.7-1.6-4.1-2.4-6.7-2.6&#10;&#9;&#9;c-1.3-0.1-2.6,0-4,0.2c-1.4,0.2-2.7,0.4-4.1,0.8c-1.4,0.3-2.7,0.8-4.1,1.2c-1.4,0.5-2.7,1-4.1,1.5c2.2-2,4.7-3.6,7.4-4.9&#10;&#9;&#9;c2.7-1.3,5.7-2.3,8.9-2.5c0.8-0.1,1.6,0,2.4,0c0.8,0.1,1.6,0.2,2.5,0.5c0.8,0.2,1.6,0.5,2.4,0.9c0.8,0.4,1.5,0.9,2.2,1.4&#10;&#9;&#9;c0.7,0.5,1.3,1.2,1.9,1.8c0.5,0.7,1.1,1.4,1.4,2.1c0.9,1.4,1.5,3,2,4.5l-4.5,0.1c0.3-0.8,0.5-1.6,0.8-2.3c0.3-0.8,0.6-1.5,1.1-2.3&#10;&#9;&#9;c0.4-0.8,0.9-1.5,1.5-2.1c0.6-0.7,1.2-1.3,1.9-1.8c0.7-0.5,1.5-1,2.2-1.4c0.8-0.4,1.6-0.7,2.4-0.9c1.6-0.4,3.3-0.5,4.9-0.4&#10;&#9;&#9;c3.2,0.2,6.1,1.2,8.8,2.5C681,304.1,683.6,305.6,685.8,307.5z" style="fill: rgb(255, 255, 255);" transform="matrix(0.9999999999999999, 0, 0, 0.9999999999999999, 1.8189894035458565e-12, 4.547473508864641e-13)"/>
</svg>
